<svg xmlns="http://www.w3.org/2000/svg" width="15" height="17" viewBox="0 0 15 17" fill="none"><script xmlns=""/>
<path d="M1.64424 16.8123C1.20225 16.8123 0.828125 16.6592 0.521875 16.353C0.215625 16.0467 0.0625 15.6726 0.0625 15.2306V3.51912C0.0625 3.07713 0.215625 2.703 0.521875 2.39675C0.828125 2.0905 1.20225 1.93738 1.64424 1.93738H2.85578V0.759476C2.85578 0.567661 2.92001 0.407529 3.04846 0.279079C3.1769 0.150644 3.33703 0.0864258 3.52886 0.0864258C3.72067 0.0864258 3.8808 0.150644 4.00925 0.279079C4.13769 0.407529 4.20191 0.567661 4.20191 0.759476V1.93738H10.8317V0.742654C10.8317 0.55644 10.8945 0.400514 11.0201 0.274879C11.1458 0.149243 11.3017 0.0864258 11.4879 0.0864258C11.6741 0.0864258 11.8301 0.149243 11.9557 0.274879C12.0813 0.400514 12.1442 0.55644 12.1442 0.742654V1.93738H13.3557C13.7977 1.93738 14.1718 2.0905 14.4781 2.39675C14.7843 2.703 14.9375 3.07713 14.9375 3.51912V15.2306C14.9375 15.6726 14.7843 16.0467 14.4781 16.353C14.1718 16.6592 13.7977 16.8123 13.3557 16.8123H1.64424ZM1.64424 15.4999H13.3557C13.423 15.4999 13.4847 15.4718 13.5408 15.4157C13.5969 15.3596 13.625 15.2979 13.625 15.2306V7.01912H1.37498V15.2306C1.37498 15.2979 1.40302 15.3596 1.45911 15.4157C1.51521 15.4718 1.57692 15.4999 1.64424 15.4999ZM1.37498 5.70664H13.625V3.51912C13.625 3.4518 13.5969 3.39009 13.5408 3.33399C13.4847 3.2779 13.423 3.24986 13.3557 3.24986H1.64424C1.57692 3.24986 1.51521 3.2779 1.45911 3.33399C1.40302 3.39009 1.37498 3.4518 1.37498 3.51912V5.70664ZM7.49998 10.3172C7.28572 10.3172 7.10315 10.2417 6.95227 10.0908C6.80139 9.93997 6.72595 9.7574 6.72595 9.54314C6.72595 9.32888 6.80139 9.14631 6.95227 8.99544C7.10315 8.84456 7.28572 8.76912 7.49998 8.76912C7.71424 8.76912 7.89681 8.84456 8.04768 8.99544C8.19856 9.14631 8.274 9.32888 8.274 9.54314C8.274 9.7574 8.19856 9.93997 8.04768 10.0908C7.89681 10.2417 7.71424 10.3172 7.49998 10.3172ZM3.99998 10.3172C3.78572 10.3172 3.60315 10.2417 3.45227 10.0908C3.30139 9.93997 3.22595 9.7574 3.22595 9.54314C3.22595 9.32888 3.30139 9.14631 3.45227 8.99544C3.60315 8.84456 3.78572 8.76912 3.99998 8.76912C4.21424 8.76912 4.39681 8.84456 4.54768 8.99544C4.69856 9.14631 4.774 9.32888 4.774 9.54314C4.774 9.7574 4.69856 9.93997 4.54768 10.0908C4.39681 10.2417 4.21424 10.3172 3.99998 10.3172ZM11 10.3172C10.7857 10.3172 10.6032 10.2417 10.4523 10.0908C10.3014 9.93997 10.226 9.7574 10.226 9.54314C10.226 9.32888 10.3014 9.14631 10.4523 8.99544C10.6032 8.84456 10.7857 8.76912 11 8.76912C11.2142 8.76912 11.3968 8.84456 11.5477 8.99544C11.6986 9.14631 11.774 9.32888 11.774 9.54314C11.774 9.7574 11.6986 9.93997 11.5477 10.0908C11.3968 10.2417 11.2142 10.3172 11 10.3172ZM7.49998 13.7499C7.28572 13.7499 7.10315 13.6744 6.95227 13.5235C6.80139 13.3727 6.72595 13.1901 6.72595 12.9758C6.72595 12.7616 6.80139 12.579 6.95227 12.4281C7.10315 12.2772 7.28572 12.2018 7.49998 12.2018C7.71424 12.2018 7.89681 12.2772 8.04768 12.4281C8.19856 12.579 8.274 12.7616 8.274 12.9758C8.274 13.1901 8.19856 13.3727 8.04768 13.5235C7.89681 13.6744 7.71424 13.7499 7.49998 13.7499ZM3.99998 13.7499C3.78572 13.7499 3.60315 13.6744 3.45227 13.5235C3.30139 13.3727 3.22595 13.1901 3.22595 12.9758C3.22595 12.7616 3.30139 12.579 3.45227 12.4281C3.60315 12.2772 3.78572 12.2018 3.99998 12.2018C4.21424 12.2018 4.39681 12.2772 4.54768 12.4281C4.69856 12.579 4.774 12.7616 4.774 12.9758C4.774 13.1901 4.69856 13.3727 4.54768 13.5235C4.39681 13.6744 4.21424 13.7499 3.99998 13.7499ZM11 13.7499C10.7857 13.7499 10.6032 13.6744 10.4523 13.5235C10.3014 13.3727 10.226 13.1901 10.226 12.9758C10.226 12.7616 10.3014 12.579 10.4523 12.4281C10.6032 12.2772 10.7857 12.2018 11 12.2018C11.2142 12.2018 11.3968 12.2772 11.5477 12.4281C11.6986 12.579 11.774 12.7616 11.774 12.9758C11.774 13.1901 11.6986 13.3727 11.5477 13.5235C11.3968 13.6744 11.2142 13.7499 11 13.7499Z" fill="#FFCA05"/>
<script xmlns=""/></svg>